<?xml version="1.0" encoding="utf-8"?>
<?xml-stylesheet type="text/xsl" href="rss1.xsl"?>
<rss version="2.0" xmlns:atom="http://www.w3.org/2005/Atom" xmlns:content="http://purl.org/rss/1.0/modules/content/" xmlns:dc="http://purl.org/dc/elements/1.1/" xmlns:media="http://search.yahoo.com/mrss/">
<channel>
 <title>sharemania</title>
 <link>http://www.sharemania.us/</link>
 <atom:link href="http://www.gettyimg.com/" rel="self" type="application/rss+xml" />

 
                <item>
                <title><![CDATA[【Albums (lossless)】FLAC - Russian DJ from a Clean Sheet 16 (2025) [FLAC 24 BIT]]]></title>
                <link><![CDATA[https://sharemania.us/threads/russian-dj-from-a-clean-sheet-16-2025-flac-24-bit.283487/]]></link>
                <description><![CDATA[<article>
				<blockquote class="messageText SelectQuoteContainer ugc baseHtml">
					
					<div style="text-align: center"><img src="https://i125.fastpic.org/big/2025/0906/ef/ac1ec858d3dec787f0855b1ca0bec0ef.jpg" class="bbCodeImage LbImage" alt="[​IMG]" data-url="https://i125.fastpic.org/big/2025/0906/ef/ac1ec858d3dec787f0855b1ca0bec0ef.jpg" style="">​</div><br>
<br>
Artist:VA<br>
Title: Russian DJ from a Clean Sheet 16 (2025) FLAC<br>
Genre: Dance, Eurodance, Club-House, Pop<br>
Year of release: 2025<br>
Number of tracks: 150<br>
Duration: 08:49:59<br>
Format: FLAC 24 bit<br>
Quality: Lossless<br>
Size: 6.64 GB<br>
<br>
001. 20 Fingers vs 3Q - Lick It (Ramirez &amp; Art-Div Dance-Up) (3:35)<br>
002. 50 Cent x SULIM - In Da Club (Hardovich Blend) (4:09)<br>
003. A.V.G, Согдиана - Сердце-магнит (Denis Misharov Remix) (3:47)<br>
004. Ace Of Base - All That She Wants (Ramirez &amp; Art-Div Dance-Up) (3:55)<br>
005. Ace of Base x DJ Prezzplay x Ricky Martin - All That She Livin' la Vida Loca (Hardovich Retro BlendShow) (4:15)<br>
006. Akcent - On And On (Index-1 Remix) (4:19)<br>
007. Alex Alta, MURANA, Niki Four - Joe Le Taxi (Red Line &amp; M1CH3L P Radio Remix) (3:02)<br>
008. Alex Gaudino feat. Kelly Rowland - What A Feeling (Misha Mentos Remix) (3:21)<br>
009. Aurosonic, Sharon Valerona - Horizon (Index-1 Radio Edit) (3:58)<br>
010. Ava Max - Don’t Click Play (Oneon Remix) (2:57)<br>
011. Basic Element - Leave It Behind (Oneon Remix) (3:46)<br>
012. bearwolf - GODZILLA (Ramirez Extended Remix) (3:39)<br>
013. BEARWOLF - ТОПИМ (Andy Shik &amp; Red Line Remix) (2:52)<br>
014. Benassi Bros feat. Azibiza - Turn Me Up (Index-1 Remix) (4:48)<br>
015. Benny Benassi - Satisfaction (CheekyBitt vs Red Line remix) (6:06)<br>
016. Captain Hollywood Project - Flying High ( Dj ЕвТюХиН Eurodance Remix ) (3:45)<br>
017. Captain Hollywood Project - Only With You (Oneon Remix) (3:31)<br>
018. D.J.A.S &amp; Bad Boys Blue - People of the Night (4:15)<br>
019. Dabro - Вечерами (Intoolate &amp; One Four Remix) (4:14)<br>
020. Dan Korshunov - Краснодарский край (Index-1 Remix) (2:07)<br>
021. David Guetta, Chris Willis, Joachim Garraud x Lavrushkin - Love Don't Let Me Go (Hardovich Blend) (4:02)<br>
022. Dj Semyonich &amp; Jeanne Sava - Как у нас да на селе девочки гуляли (KalashnikoFF Mix) (3:00)<br>
023. DJ Solovey - За Горизонт (3:07)<br>
024. Dova Music - Now I Run (KalashnikoFF Mix) (3:50)<br>
025. Dr. Alban - It's My Life (V.MoRzz Remix) (3:10)<br>
026. Enur, Natasja vs Against Systems - Calabria (Art-Div &amp; Ramirez Dance-Up) (5:23)<br>
027. Eric Saade x Demas - Wide Awake (Makhno Blend) (3:47)<br>
028. E-Rotic - Max Don't Have Sex With Your Ex (Oneon Remix) (3:54)<br>
029. Filatov &amp; Karas &amp; Винтаж - Прасковья (KalashnikoFF Mix) (2:59)<br>
030. Filatov &amp; Karas &amp; Винтаж - Прасковья (Red Line &amp; M1CH3L P Radio Remix) (2:22)<br>
031. Flo Rida Ft T-Pain - Low (Denis Misharov Remix) (4:06)<br>
032. Fun Factory feat. Timi Kullai &amp; Zivert - Take Your Chance (DJ TemperaTura Remix) (4:09)<br>
033. Gadyno - No More Lies (DJ Paul &amp; DJ JON Remix) (4:48)<br>
034. Galezard &amp; Damaris - Dance DJ (Pro 2025) (3:57)<br>
035. Galezard &amp; DJ VAL ft. Aiola - Once again (I Surrender) (Pro 2025) (2:57)<br>
036. Galezard &amp; MC Slice - Baby Dance With Me (Pro 2025) (4:04)<br>
037. Galezard Project &amp; Co - BOOM DIGGY (EU 2025) (3:07)<br>
038. Galezard Project &amp; SAVAGE-44 - Destination (Pro X 2025) (3:24)<br>
039. GAYAZOV$ BROTHER$, Ислам Итляшев - ЗВЕРЯ НЕ БУДИ (Red Line &amp; M1CH3L P Radio Remix) (2:51)<br>
040. Go! - Let's All Chant (KalashnikoFF Remix 2025) (3:51)<br>
041. Hurts, Purple Disco Machine - Wonderful Life '25 (Misha Mentos Remix) (3:52)<br>
042. Ice MC - Its A Rainy Day (Matuno Radio Remix) (3:15)<br>
043. Ice Mc - It's Up to You (Bo dj remix) (3:07)<br>
044. ICEGERGERT, SKY RAE - Наследство (WeLife &amp; Hardovich Remix) (3:18)<br>
045. ICEGERGERT, SKY RAE x Subsonic Ekko Sidetrack - Наследство (Vego - V Blend) (3:40)<br>
046. Inna feat. Bob Taylor - Deja Vu (Index-1 Remix) (3:26)<br>
047. IOWA - Fashion Girl (Red Line &amp; M1CH3L P Remix) (2:34)<br>
048. Jakone, Kiliana &amp; Glazur &amp; XM - Асфальт (Andrey Kiselev Club Blend 2025) (3:08)<br>
049. Jakone, Kiliana &amp; REFLEX - Потому что не было тебя (Alexx Slam Remix) (3:06)<br>
050. Jakone, Kiliana, REFLEX - Потому что не было тебя (Ramirez &amp; Arefiev Remix) (2:47)<br>
051. Kamro &amp; Tianna - La Isla Bonita (Red Line &amp; M1CH3L P Radio Remix) (2:43)<br>
052. Katseye - M.I.A (DJ JON &amp; Red Line Remix) (2:22)<br>
053. KAYA, DJ Katya Guseva - Вот и лето прошло (4:07)<br>
054. Khaled - Aicha (Red Line &amp; M1CH3L P Radio Remix) (3:02)<br>
055. Kiriman - Rainy Night (Martik C Rmx) (4:12)<br>
056. kizaru, ICEGERGERT - Fake ID (Index-1 Remix) (2:09)<br>
057. kizaru, ICEGERGERT - Fake ID (MIKIS DnB x Gangsta's Paradise Edit) (2:24)<br>
058. Klaas - The Way (Index-1 Remix) (2:48)<br>
059. Kolya Funk - Freed from Desire (Extended) (3:46)<br>
060. Kolya Funk, Phurs - Coco Jambo (Red Line &amp; M1CH3L P Remix) (2:43)<br>
061. Kolya Funk, Phurs - Coco Jamboo (Dj Paul &amp; DJ JON Remix) (2:57)<br>
062. Kolya Funk, Phurs - Coco Jamboo (Eddie G Extended Remix) (3:24)<br>
063. Kolya Funk, Phurs, Tin Tin - Не дано (Alex Shik Remix) (3:36)<br>
064. Kolya Funk, Tin Tin - Зелёное лето (KalashnikoFF Mix) (2:56)<br>
065. Konfuz - Италия (Ramirez x Arefiev Extended Remix) (3:23)<br>
066. Kriss Kross - Jump (Art-Div &amp; Ramirez Dance-Up) (3:50)<br>
067. Lil Jon, DJ Snake x Oomloud - Turn Down for What (Hardovich &amp; Nezil Blend) (3:19)<br>
068. Lucky Laura - City (D.Troy Official remix) (2:07)<br>
069. Ludacris &amp; Don Diablo - Move Bitch (ONEGINЪ RADIO EDIT) (3:17)<br>
070. Mario Cola - Love Theme Dusk (2:58)<br>
071. Marius Nedelcu feat. Giulia - Rain (Index-1 Remix) (3:22)<br>
072. Masterboy - Feel The Fire (Oneon Remix) (3:39)<br>
073. Masterboy feat Beatrix Delgado - Mister Feeling 2025 (EUROKOST RMX) (6:18)<br>
074. MAXX - Get A Way (Red Line &amp; M1CH3L P Radio Remix) (3:52)<br>
075. Mayvery - Дай мне знак (3:13)<br>
076. MC Zali, Linzza - У реки (KalashnikoFF Remix) (2:17)<br>
077. Melodie MC vs Red Met - Bomba Deng (Ramirez &amp; Art-Div Dance-Up) (3:06)<br>
078. MIA BOYKA x Alex Dee - Черная LADA (Makhno Blend) (3:39)<br>
079. Mia Boyka, Lavrushkin &amp; Larichev - Афродита (Alex Botcher Blend) (2:49)<br>
080. Mika - Relax (Take It Easy) (Red Line &amp; M1CH3L P Radio Remix) (3:48)<br>
081. Miko, Adil - Retro (KalashnikoFF Remix 2025) (3:21)<br>
082. Mixon Spencer &amp; Kuriev - Candela (Radio Mix) (3:25)<br>
083. Moonlight Tunes - Он чужой (Red Line &amp; M1CH3L P Extended Remix) (4:01)<br>
084. Morhotronic &amp; Martik C - Faster Baby Faster (DrBeat rework) (3:30)<br>
085. Mr.Stephen - The Girl of Lucifer (ReFresh Monte Kristo) (3:46)<br>
086. Mya mozza, HitBeat, Boomer Boyz - ТУМАН (KalashnikoFF Mix) (2:20)<br>
087. Narvent - White Roses (Slowed) (4:35)<br>
088. Niletto - Добрая лунная (Red Line &amp; M1CH3L P Radio Remix) (3:59)<br>
089. NITI DILA - Минимум (Index-1 Remix) (2:49)<br>
090. Radio Killer - Voila (Index-1 Radio Edit) (3:35)<br>
091. RASA - Чунга Чанга (KalashnikoFF Remix) (3:39)<br>
092. Rasa - Чунга Чанга (Red Line &amp; M1CH3L P Remix) (2:53)<br>
093. Red Line vs CheekyBitt - I Feel Your Voice (7:02)<br>
094. Relanium, Deen West - Leel Lost (Index-1 Remix) (3:05)<br>
095. SABI, MIA BOYKA - Базовый минимум (Index-1 Remix) (1:56)<br>
096. Sandra - In The Heat Of The Night (D.Troy remix) (2:07)<br>
097. Scooter - How Much Is The Fish (Eddie G Remix) (3:03)<br>
098. Serge Devant ft. Emma Hewitt - Take me with you (Index-1 Radio Edit) (3:09)<br>
099. SERPO - Пароль из любимых слов (D.Troy remix) (2:38)<br>
100. Shami - Да Что Ты Знаешь (Slowed) (4:12)<br>
101. Shenseea, Megan Thee Stallion vs Loulou Players, Pimpo Gama - Lick (Ramirez &amp; Art-Div Dance-Up) (3:52)<br>
102. Slavik Pogosov - Душа растамана (KalashnikoFF Remix 2025) (3:28)<br>
103. Smash Mouth - All Star (Vee-Tal &amp; ECSTAZZ) (3:01)<br>
104. SNAP x M1CH3L P, Redline, Eddie G, Malyx - Rhythm Dancer (DJ Baur VIP Edit) (3:52)<br>
105. Styles of beyond - Nine thou (Ayur Tsyrenov remix) (3:22)<br>
106. THE MATRIX - Moon and Sun (Extended mix) (7:22)<br>
107. TIGO, Wallem - Про неё (Ramirez &amp; Pavlov Extended Remix) (3:34)<br>
108. Unklfnkl feat. Ioana Ignat - 6 Feet Deep (D.Troy remix) (2:14)<br>
109. VEIGEL, EDWARD - Рядом с тобой (Ruslan Mishin &amp; Andy Shik Remix) (2:20)<br>
110. Vengerof &amp; Fedoroff, Bravo - Московский бит (Index-1 Remix) (3:49)<br>
111. Vinylshakerz, YASTREB - One Night In Bangkok (Index-1 Remix) (3:10)<br>
112. VXLLAIN, V&amp;#216;J, Narvent - Distant Echoes (3:02)<br>
113. VXLLAIN, V&amp;#216;J, Narvent - Distant Echoes (Sped Up) (2:27)<br>
114. West Wes - Get it Down Low (Red Line &amp; M1CH3L P Remix) (2:48)<br>
115. Zivert - Гудбаи&amp;#774; (Alexander Pierce Remix 2025) (4:06)<br>
116. Zivert, DJ DimixeR, Dmitrii G - Гудбай (Extended Remix) (4:24)<br>
117. Антиреспект - Тишины хочу (KalashnikoFF Remix 2025) (5:51)<br>
118. Артем Тото - Куда иду я за тобой, скажи (KalashnikoFF Remix) (3:29)<br>
119. Бонд с кнопкои&amp;#774; - Кухни (Corto x Slim Remix Extended) (3:10)<br>
120. Бонд с кнопкои&amp;#774; - Кухни (Kolya Funk Remix) (5:10)<br>
121. Ботаника - Под Луганском родился (Sped Up) (3:02)<br>
122. Гости из будущего - Беги от меня (Denis Misharov Remix 2025) (3:39)<br>
123. Дима Билан, Клава Кока - Держи (MIKIS x Z-LOW Edit) (2:09)<br>
124. Женя Малахова, Lavrushkin &amp; Mephisto - Клинит (Alex Botcher Blend) (2:43)<br>
125. Жуки - И&amp;#774;огурты (Red Line &amp; M1CH3L P Radio Remix) (3:24)<br>
126. Игорь Тальков - Летний дождь (Misha Mentos Remix) (5:50)<br>
127. Ицык Цыпер &amp; Игорь Цыба, Misha Plein &amp; So Green - Море (Alex Botcher Blend) (2:58)<br>
128. Казаки Делают Хиты - Облака (DJ2K Blend) (4:07)<br>
129. Кино - Группа крови ( v.2 В.Цой+LiLuAi ) (3:13)<br>
130. Король и Шут - Кукла Колдуна (SONETS DJS Remix Radio Edit) (1:40)<br>
131. Коста Лакоста - Эротика (KalashnikoFF Mix 2025) (3:33)<br>
132. КРОСЫ x Tujamo x Adnan Veron x Erga ft. Liquid Silva - Чучука (KIRILLSLEM Blend) (4:01)<br>
133. Модная Стрижка, KalashnikoFF - Конфетка (Remix) (3:47)<br>
134. Моя Мишель - Иногда (DJ Bliss Remix) (3:30)<br>
135. Мумий Тролль - Медведица (TARABRIN Radio Remix) (3:51)<br>
136. Оксана Почепа (Акула), DJ DimixeR - Ты другой (3:02)<br>
137. Оксана Почепа (Акула), DJ DimixeR - Ты другой (Index-1 Remix) (2:40)<br>
138. Паша Proorok - Холодныи&amp;#774; закат (D.Troy remix) (1:53)<br>
139. ПЕВЧАЯ - Ты заря (KalashnikoFF Remix) (4:03)<br>
140. ПЕВЧАЯ - Ты Заря (Alex Prix &amp; Simka Remix) (5:20)<br>
141. ПЕВЧАЯ - Ты заря (CheekyBitt remix) (6:02)<br>
142. Петр Погодаев - По лезвию (KalashnikoFF Remix) (4:21)<br>
143. Т.БУЛАНОВА &amp; ГУФ - ОДИН ДЕНЬ (4:08)<br>
144. Татьяна Буланова - Один День (Index-1 Remix) (2:38)<br>
145. Татьяна Куртукова - Матушка (Ramirez x DJ VALIULLIN Extended Remix) (3:12)<br>
146. Форум - Давайте созвонимся (DJ Karabas Remix) (4:41)<br>
147. Шейх Мансур - Балдини (Ramirez &amp; Harlid Extended Remix) (3:24)<br>
148. Шкред, retroyse, chelsy smile, TEENWXVE, wxmac - Мало тебя (KalashnikoFF Mix) (3:11)<br>
149. Эндшпиль - 10 (DJ Smell Extended Remix) (3:26)<br>
150. Южный &amp; Яна Valevich - Медляк (Red Line &amp; M1CH3L P Remix) (3:27)<br>
<br>




<div class="bbCodeBlock bbCodeVfcHH HiddenContent">
	<div class="attribution type">Hidden Content:</div>
	<blockquote>You must either reply or click 'Like' to see the hidden information contained here.</blockquote>
</div>
					<div class="messageTextEndMarker">&nbsp;</div>
				</blockquote>
			</article>]]></description>
                <author><![CDATA[Shpak]]></author>
                </item>

                
                <item>
                <title><![CDATA[【Albums (lossless)】FLAC - 702 - Star (Japan Edition) [CD 16bits/44.1kHz]]]></title>
                <link><![CDATA[https://sharemania.us/threads/702-star-japan-edition-cd-16bits-44-1khz.283490/]]></link>
                <description><![CDATA[<article>
				<blockquote class="messageText SelectQuoteContainer ugc baseHtml">
					
					<div style="text-align: center"><img src="https://ptpimg.me/344wd9.jpg" class="bbCodeImage LbImage" alt="[​IMG]" data-url="https://ptpimg.me/344wd9.jpg" style=""><br>
<br>
<span style="font-family: 'Verdana'"><span style="font-size: 12px"><b>1. Let Your Hair Down</b><br>
<b>2. Star</b><br>
<b>3. Trouble</b><br>
<b>4. Feelings</b><br>
<b>5. Come &amp; Knock on My Door</b><br>
<b>6. I Still Love You</b><br>
<b>7. Reality</b><br>
<b>8. Certified</b><br>
<b>9. Places</b><br>
<b>10. Stringing Me Along</b><br>
<b>11. No Way</b><br>
<b>12. Blah, Blah, Blah, Blah</b><br>
<b>13. Betcha She</b><br>
<b>14. Better Day</b><br>
<b>15. Jealousy</b><br>
<b>16. I'm Wit You</b><br>
<b>17. Star (Shining Star Remix)</b><br>
<br>
<b>



<div class="bbCodeBlock bbCodeVfcHH HiddenContent">
	<div class="attribution type">Hidden Content:</div>
	<blockquote>You must reply before you can see the hidden data contained here.</blockquote>
</div></b></span></span>​</div>
					<div class="messageTextEndMarker">&nbsp;</div>
				</blockquote>
			</article>]]></description>
                <author><![CDATA[OhSnapItzTrey]]></author>
                </item>

                
                <item>
                <title><![CDATA[【Unreleased/Unofficial (lossy)】Dolby Atmos - Bruno Mars - Locked Out of Heaven [EAC3-JOC, 16bit/48kHz, 768Kbps,5.1s]|[AC4. 48kHz, 320Kbps,2.0]]]></title>
                <link><![CDATA[https://sharemania.us/threads/bruno-mars-locked-out-of-heaven-eac3-joc-16bit-48khz-768kbps-5-1s-ac4-48khz-320kbps-2-0.283489/]]></link>
                <description><![CDATA[<article>
				<blockquote class="messageText SelectQuoteContainer ugc baseHtml">
					
					<img src="https://a5.mzstatic.com/us/r1000/0/Music115/v4/07/1d/b8/071db8b0-60f8-2c2f-563f-79f54d2ad01b/075679955319.jpg" class="bbCodeImage LbImage" alt="[​IMG]" data-url="https://a5.mzstatic.com/us/r1000/0/Music115/v4/07/1d/b8/071db8b0-60f8-2c2f-563f-79f54d2ad01b/075679955319.jpg" style=""><br>
<br>
<b>Artist: Bruno Mars<br>
Album: Locked Out of Heaven - Single<br>
Format: ◗◖Dolby Atmos◗◖&amp;◗◖Dolby AC4-IMS◗◖<br>
.m4a [EAC3-JOC, 16bit/48kHz, 768Kbps, 5.1s]<br>
.m4a [AC4. 48kHz, 320Kbps, 2.0-IMS]<br>
</b><br>
<br>
Tracklist:<br>
1            Locked Out of Heaven<br>
<b>Released 21 January 2013<br>
℗ 2012 Atlantic Recording Corporation for the United States and WEA International Inc. for the world outside of the United States</b><br>
<br>



<div class="ToggleTriggerAnchor bbCodeSpoilerContainer">
	<button type="button" class="button bbCodeSpoilerButton ToggleTrigger Tooltip JsOnly" data-target="&gt; .SpoilerTarget"><span>Spoiler: <span class="SpoilerTitle">MediaInfo-Dolby Atmos</span></span></button>
	<div class="SpoilerTarget bbCodeSpoilerText">

<div class="bbCodeBlock bbCodeCode">
	<div class="type">Code:</div>
	<pre>General
Complete name               : 01 Locked Out of Heaven (EC3).m4a
Format                      : MPEG-4
Format profile              : Base Media / Version 2
Codec ID                    : mp42 (mp42/dby1)
File size                   : 21.8 MiB
Duration                    : 3 min 53 s
Overall bit rate mode       : Constant
Overall bit rate            : 782 kb/s
Album                       : Locked Out of Heaven - Single
Album/Sorted by             : Locked Out of Heaven - Single
Album/Performer             : Bruno Mars
Part/Position               : 1
Part/Total                  : 1
Track name                  : Locked Out of Heaven
Track name/Position         : 1
Track name/Total            : 1
Performer                   : Bruno Mars
Performer/Sorted by         : Bruno Mars
Composer                    : Ari Levine, Bruno Mars &amp; Philip Lawrence
Composer/Sorted by          : Ari Levine, Bruno Mars &amp; Philip Lawrence
Genre                       : Pop
ContentType                 : Music
Recorded date               : 2013-01-21 08:00:00 UTC
Encoded date                : 2022-03-01 10:07:07 UTC
Tagged date                 : 2022-03-01 10:07:07 UTC
ISRC                        : USAT21204492
Copyright                   : ℗ 2012 Atlantic Recording Corporation for the United States and WEA International Inc. for the world outside of the United States
Cover                       : Yes
Lyrics                      : [00:00.10]One, two, one, two, three / [00:04.46]Oh, yeah, yeah / [00:06.11]Oh, yeah, yeah, yeah, yeah (Uh) / [00:11.11]Oh, yeah, yeah / [00:12.78]Oh, yeah, yeah, yeah, yeah (Uh) / [00:17.16]Never had much faith in love or miracles (Miracles) (Uh) / [00:23.75]Never wanna put my heart on the line (Uh) / [00:30.25]But swimming in your water's something spiritual (Spiritual) (Uh) / [00:36.95]I'm born again every time you spend the ni-i-ight, i, i-ight (Uh) / [00:42.78]'Cause your sex takes me to paradise / [00:46.12]Yeah, your sex takes me to paradise / [00:49.45]And it shows / [00:53.21]Yeah, yeah, yeah / [00:55.70]'Cause you make me feel like / [00:58.83]I've been locked out of heaven / [01:02.76]For too long / [01:06.13]For too long / [01:09.00]Yeah, you make me feel like / [01:12.17]I've been locked out of heaven / [01:16.14]For too long / [01:19.44]For too long / [01:26.13]Oh, yeah, yeah, yeah, yeah (Uh) / [01:31.08]Oh, yeah, yeah / [01:32.79]Oh, yeah, yeah, yeah, yeah (Uh) / [01:36.91]You bring me to my knees, you make me testify (Testify) (Uh) / [01:43.79]You can make a sinner change his ways (Uh) / [01:49.44]Open up your gates 'cause I can't wait to see the light (See the light) (Uh) / [01:56.90]And right there is where I wanna sta-a-ay, a-ay (Uh) / [02:02.76]'Cause your sex takes me to paradise / [02:06.12]Yeah, your sex takes me to paradise / [02:09.47]And it shows / [02:13.20]Yeah, yeah, yeah / [02:15.70]'Cause you make me feel like / [02:18.84]I've been locked out of heaven / [02:22.78]For too long / [02:26.11]For too long / [02:29.03]Yeah, you make me feel like / [02:32.14]I've been locked out of heaven / [02:36.13]For too long / [02:39.45]For too long / [02:43.42]Oh, whoa, whoa, whoa / [02:46.72]Yeah, yeah, yeah / [02:49.24]Can I just stay here? / [02:51.94]Spend the rest of my days here? / [02:56.75]Oh, whoa, whoa, whoa / [03:00.06]Yeah, yeah, yeah / [03:02.59]Can I just stay here? / [03:05.32]Spend the rest of my days here? / [03:08.95]'Cause you make me feel like / [03:12.18]I've been locked out of heaven / [03:16.09]For too long / [03:19.45]For too long / [03:22.24]Yeah, you make me feel like / [03:25.48]I've been locked out of heaven / [03:29.45]For too long / [03:32.76]For too long / [03:39.44]Oh, yeah, yeah, yeah, yeah (Uh) / [03:44.46]Oh, yeah, yeah / [03:46.13]Oh, yeah, yeah, yeah, yeah (Uh)
Comment                     : atmos &amp; 360ra mix by: andammm777 on sharemania.us
Rating                      : Explicit
AlbumTitleID                : 278873078
AppleStoreCatalogID         : 598054294
GenreID                     : 17
AppleStoreCountry           : Indonesia
Title/Sort                  : Locked Out of Heaven
WWW                         : https://sharemania.us/
ENCODEDBY                   : andammm777

Audio
ID                          : 1
Format                      : E-AC-3 JOC
Format/Info                 : Enhanced AC-3 with Joint Object Coding
Commercial name             : Dolby Digital Plus with Dolby Atmos
Codec ID                    : ec-3
Duration                    : 3 min 53 s
Bit rate mode               : Constant
Bit rate                    : 768 kb/s
Channel(s)                  : 6 channels
Channel layout              : L R C LFE Ls Rs
Sampling rate               : 48.0 kHz
Frame rate                  : 31.250 FPS (1536 SPF)
Compression mode            : Lossy
Stream size                 : 21.4 MiB (98%)
Service kind                : Complete Main
Default                     : Yes
Alternate group             : 2
Encoded date                : 2022-03-01 10:07:07 UTC
Tagged date                 : 2022-03-01 10:07:07 UTC
Complexity index            : 16
Number of dynamic objects   : 15
Bed channel count           : 1 channel
Bed channel configuration   : LFE
Dialog Normalization        : -18 dB
compr                       : -0.28 dB
dmixmod                     : Lo/Ro
ltrtcmixlev                 : -3.0 dB
ltrtsurmixlev               : -3.0 dB
lorocmixlev                 : -3.0 dB
lorosurmixlev               : -3.0 dB
dialnorm_Average            : -18 dB
dialnorm_Minimum            : -18 dB
dialnorm_Maximum            : -18 dB


</pre>
</div></div>
</div><br>



<div class="ToggleTriggerAnchor bbCodeSpoilerContainer">
	<button type="button" class="button bbCodeSpoilerButton ToggleTrigger Tooltip JsOnly" data-target="&gt; .SpoilerTarget"><span>Spoiler: <span class="SpoilerTitle">MediaInfo-Dolby AC4</span></span></button>
	<div class="SpoilerTarget bbCodeSpoilerText">

<div class="bbCodeBlock bbCodeCode">
	<div class="type">Code:</div>
	<pre>General
Complete name               : 01 Locked Out of Heaven (AC4).m4a
Format                      : MPEG-4
Format profile              : Base Media / Version 2
Codec ID                    : mp42 (mp42/dby1)
File size                   : 9.29 MiB
Duration                    : 3 min 53 s
Overall bit rate            : 334 kb/s
Album                       : Locked Out of Heaven - Single
Album/Sorted by             : Locked Out of Heaven - Single
Album/Performer             : Bruno Mars
Part/Position               : 1
Part/Total                  : 1
Track name                  : Locked Out of Heaven
Track name/Position         : 1
Track name/Total            : 1
Performer                   : Bruno Mars
Performer/Sorted by         : Bruno Mars
Composer                    : Ari Levine, Bruno Mars &amp; Philip Lawrence
Composer/Sorted by          : Ari Levine, Bruno Mars &amp; Philip Lawrence
Genre                       : Pop
ContentType                 : Music
Recorded date               : 2013-01-21 08:00:00 UTC
Encoded date                : 2022-03-01 10:07:07 UTC
Tagged date                 : 2022-03-01 10:07:07 UTC
ISRC                        : USAT21204492
Copyright                   : ℗ 2012 Atlantic Recording Corporation for the United States and WEA International Inc. for the world outside of the United States
Cover                       : Yes
Lyrics                      : [00:00.10]One, two, one, two, three / [00:04.46]Oh, yeah, yeah / [00:06.11]Oh, yeah, yeah, yeah, yeah (Uh) / [00:11.11]Oh, yeah, yeah / [00:12.78]Oh, yeah, yeah, yeah, yeah (Uh) / [00:17.16]Never had much faith in love or miracles (Miracles) (Uh) / [00:23.75]Never wanna put my heart on the line (Uh) / [00:30.25]But swimming in your water's something spiritual (Spiritual) (Uh) / [00:36.95]I'm born again every time you spend the ni-i-ight, i, i-ight (Uh) / [00:42.78]'Cause your sex takes me to paradise / [00:46.12]Yeah, your sex takes me to paradise / [00:49.45]And it shows / [00:53.21]Yeah, yeah, yeah / [00:55.70]'Cause you make me feel like / [00:58.83]I've been locked out of heaven / [01:02.76]For too long / [01:06.13]For too long / [01:09.00]Yeah, you make me feel like / [01:12.17]I've been locked out of heaven / [01:16.14]For too long / [01:19.44]For too long / [01:26.13]Oh, yeah, yeah, yeah, yeah (Uh) / [01:31.08]Oh, yeah, yeah / [01:32.79]Oh, yeah, yeah, yeah, yeah (Uh) / [01:36.91]You bring me to my knees, you make me testify (Testify) (Uh) / [01:43.79]You can make a sinner change his ways (Uh) / [01:49.44]Open up your gates 'cause I can't wait to see the light (See the light) (Uh) / [01:56.90]And right there is where I wanna sta-a-ay, a-ay (Uh) / [02:02.76]'Cause your sex takes me to paradise / [02:06.12]Yeah, your sex takes me to paradise / [02:09.47]And it shows / [02:13.20]Yeah, yeah, yeah / [02:15.70]'Cause you make me feel like / [02:18.84]I've been locked out of heaven / [02:22.78]For too long / [02:26.11]For too long / [02:29.03]Yeah, you make me feel like / [02:32.14]I've been locked out of heaven / [02:36.13]For too long / [02:39.45]For too long / [02:43.42]Oh, whoa, whoa, whoa / [02:46.72]Yeah, yeah, yeah / [02:49.24]Can I just stay here? / [02:51.94]Spend the rest of my days here? / [02:56.75]Oh, whoa, whoa, whoa / [03:00.06]Yeah, yeah, yeah / [03:02.59]Can I just stay here? / [03:05.32]Spend the rest of my days here? / [03:08.95]'Cause you make me feel like / [03:12.18]I've been locked out of heaven / [03:16.09]For too long / [03:19.45]For too long / [03:22.24]Yeah, you make me feel like / [03:25.48]I've been locked out of heaven / [03:29.45]For too long / [03:32.76]For too long / [03:39.44]Oh, yeah, yeah, yeah, yeah (Uh) / [03:44.46]Oh, yeah, yeah / [03:46.13]Oh, yeah, yeah, yeah, yeah (Uh)
Comment                     : atmos &amp; 360ra mix by: andammm777 on sharemania.us
Rating                      : Explicit
AlbumTitleID                : 278873078
AppleStoreCatalogID         : 598054294
GenreID                     : 17
AppleStoreCountry           : Indonesia
Title/Sort                  : Locked Out of Heaven
WWW                         : https://sharemania.us/
ENCODEDBY                   : andammm777

Audio
ID                          : 1
Format                      : AC-4
Format/Info                 : Audio Coding 4
Commercial name             : Dolby AC-4
Format version              : Version 2
Codec ID                    : ac-4
Duration                    : 3 min 53 s
Bit rate                    : 320 kb/s
Channel(s)                  : 2 channels
Channel layout              : L R
Sampling rate               : 48.0 kHz
Frame rate                  : 23.438 FPS (2048 SPF)
Compression mode            : Lossy
Stream size                 : 8.91 MiB (96%)
Default                     : Yes
Alternate group             : 2
Encoded date                : 2022-03-01 10:07:07 UTC
Tagged date                 : 2022-03-01 10:07:07 UTC
I-Frame interval            : 24 frames
Number of presentations     : 1
NumberOfGroups              : 1
Number of substreams        : 1
Presentation #1             : Immersive Stereo Main
 Presentation ID            : 0
 Dolby Atmos                : Yes
 Dialogue normalization     : -17.00
 Loudness                   : Yes
  Integrated loudness (spee : -30.5 LKFS
  Integrated loudness (leve : -17.0 LKFS
  Audio Loudness Standard   : ATSC A/85
  Realtime loudness correct : No
  Dialogue corrected        : No
 Dynamic Range Control      : Yes
  E-AC-3 DRC profile        : Music light
  Home theater AVR          : Music light
  Flat panel TV             : Music light
  Portable speakers         : Music light
  Portable headphones       : Music light
 Group #s                   : 1
Group #1                    : Main
 Content classifier         : Main
 Channel coded              : Yes
 Immersive stereo           : Dolby Atmos Content
 Number of substreams       : 1
 Substream #s               : 1
Substream #1                : Stereo
 Channel mode               : Stereo
 Immersive stereo           : Dolby Atmos Content
 Channel layout             : L R


</pre>
</div></div>
</div><br>
<br>
PASSWORD ZIP: sharemania<br>
LINK:<br>




<div class="bbCodeBlock bbCodeVfcHH HiddenContent">
	<div class="attribution type">Hidden Content:</div>
	<blockquote>You must reply before you can see the hidden data contained here.</blockquote>
</div>
					<div class="messageTextEndMarker">&nbsp;</div>
				</blockquote>
			</article>]]></description>
                <author><![CDATA[andammm777]]></author>
                </item>

                
                <item>
                <title><![CDATA[【Albums (lossy)】PACK - Tomorrowland 2025 Top 100 EDM HITS 05.09.2025 (2025)]]></title>
                <link><![CDATA[https://sharemania.us/threads/tomorrowland-2025-top-100-edm-hits-05-09-2025-2025.283488/]]></link>
                <description><![CDATA[<article>
				<blockquote class="messageText SelectQuoteContainer ugc baseHtml">
					
					<div style="text-align: center"><img src="https://i125.fastpic.org/big/2025/0906/80/8d106b178b9d01a73a9f239cadf93b80.jpg" class="bbCodeImage LbImage" alt="[​IMG]" data-url="https://i125.fastpic.org/big/2025/0906/80/8d106b178b9d01a73a9f239cadf93b80.jpg" style="">​</div><br>
<br>
Artist:VA<br>
Title: Tomorrowland 2025 Top 100 EDM HITS 09/05/2025 (2025)<br>
Genre: Pop, Dance<br>
Year of release: 2025<br>
Number of tracks: 100<br>
Duration: 05:09:06<br>
Format: MP3<br>
Quality: 320 kbps<br>
Size: 707.48 MB<br>
<br>
1. David Guetta;Bebe Rexha - I'm Good (Blue)[2:56]<br>
2. Ti&amp;#235;sto;Dido;W&amp;W;Like Mike - Thank You (Not So Bad)[2:21]<br>
3. Shouse - Love Tonight (David Guetta Remix Edit)[2:39]<br>
4. David Guetta;Hypaton;La Bouche - Be My Lover (feat. La Bouche) (2023 Mix)[2:50]<br>
5. Delerium;Sarah McLachlan;John Summit - Silence (John Summit Remix)[4:35]<br>
6. Calvin Harris;Ellie Goulding - Miracle[3:07]<br>
7. Gabry Ponte;LUM!X;Prezioso - Thunder[2:41]<br>
8. Dynoro;Gigi D'Agostino - In My Mind[3:04]<br>
9. KREAM - Wicked Game[2:56]<br>
10. MEDUZA;Alok;Goodboys - Piece Of Your Heart (Alok Remix)[2:47]<br>
11. &amp;#214;wnboss;Sevek - Move Your Body[2:38]<br>
12. ACRAZE;Cherish - Do It To It[2:38]<br>
13. Alan Walker;FAANGS - Heartbreak Melody[3:12]<br>
14. Niklas Dee;Old Jim;Enny-Mae - Not Fair[2:44]<br>
15. Oliver Tree;Robin Schulz - Miss You[3:27]<br>
16. cass&amp;#246;;RAYE;Valexus;D-Block Europe - Prada (feat. D-Block Europe) (Valexus Remix)[2:16]<br>
17. Tigerlily;VASSY - Secrets[2:36]<br>
18. Creeds - Push Up (Main Edit)[2:20]<br>
19. Bennett - Vois sur ton chemin (Techno Mix)[2:59]<br>
20. Joel Corry;Jem Cooke - Daydream[3:21]<br>
21. Martin Garrix - Animals (Radio Edit)[2:57]<br>
22. Timmy Trumpet;Savage - Freaks (Radio Edit)[2:49]<br>
23. Nervo;Tigerlily - Mickey[2:40]<br>
24. David Guetta;Martin Garrix;Brooks - Like I Do[3:23]<br>
25. Sick Individuals;Matisse &amp; Sadko;Third Party - Take Me There[3:22]<br>
26. David Guetta;OneRepublic - I Don't Wanna Wait (Hardwell &amp; Olly James Remix)[3:04]<br>
27. Braaheim - Paradise[2:31]<br>
28. Sebastian Ingrosso;Alesso;Ryan Tedder - Calling (Lose My Mind) (Radio Edit)[3:26]<br>
29. MORTEN;Bonn - Take Me Home[4:05]<br>
30. Sebastian Ingrosso;Tommy Trash;John Martin - Reload (Radio Edit)[3:42]<br>
31. One Republic;Alesso - If I Lose Myself[3:36]<br>
32. Swedish House Mafia;John Martin - Don't You Worry Child (Radio Edit)[3:33]<br>
33. David Guetta;Sia - Titanium (feat. Sia)[4:06]<br>
34. R3HAB;Mike Williams - Lullaby[2:41]<br>
35. Alesso;John Newman - Call Your Name[2:52]<br>
36. Nadia Ali - Starkillers &amp; Alex Kenji - Pressure (Alesso Remix)[6:07]<br>
37. David Guetta;Alesso;Madison Love - Never Going Home Tonight (feat. Madison Love)[2:45]<br>
38. Swedish House Mafia - Save The World[3:34]<br>
39. Alesso;Tove Lo - Heroes (we could be)[3:31]<br>
40. Martin Garrix;Sentinel;Bonn - Hurricane[3:19]<br>
41. Avicii;Nicky Romero - I Could Be The One (Avicii Vs. Nicky Romero) (Radio Edit)[3:29]<br>
42. Avicii - Wake Me Up[4:08]<br>
43. Avicii;Sandro Cavazza - Without You[3:02]<br>
44. TELYKAST;Oaks - Super Powers[3:33]<br>
45. Ti&amp;#235;sto - Red Lights[4:23]<br>
46. Axwell;Sebastian Ingrosso - Sun Is Shining[4:15]<br>
47. Ti&amp;#235;sto - Lay Low[2:34]<br>
48. Mark Mendy;Able Faces;ALLKNIGHT - Never Let Me Go[2:09]<br>
49. Disclosure;Eliza Doolittle - You &amp; Me (Rivo Remix)[3:29]<br>
50. Vidojean X Oliver Loenn - Alameyo[3:16]<br>
51. Adam Port;Stryv;Keinemusik;Orso;Malachiii - Move[2:58]<br>
52. ZERB;Sofiya Nzau - Mwaki (Ti&amp;#235;sto's VIP Mix)[2:41]<br>
53. Vidojean X Oliver Loenn;Jos&amp;#233; Lucas - Embawe[3:02]<br>
54. David Guetta;Sia - Beautiful People[3:08]<br>
55. Marc Benjamin;Ansun;YYVON - Set Fire To The Rain[3:02]<br>
56. Dezko - Ascend[3:21]<br>
57. CMC$;Terror Jr - Risk It All[2:50]<br>
58. Alan Walker - Faded[3:33]<br>
59. Alok;Agents Of Time - Fever[2:27]<br>
60. HUGEL;Diplo;Malou;Yuna - Forever (feat. Malou &amp; Yuna) (MORTEN Remix)[4:12]<br>
61. 22Bullets;Pascal Letoublon;MERYLL - Something In The Air[2:57]<br>
62. Swedish House Mafia - Ray Of Solar[4:02]<br>
63. Jengi - Take U[2:43]<br>
64. David Guetta;Anne-Marie;Coi Leray - Baby Don't Hurt Me[2:21]<br>
65. Ely Oaks;LAVINIA - Same Thing[1:56]<br>
66. Alok;The Chainsmokers;Mae Stephens - Jungle[2:56]<br>
67. Pink Panda;Goodscandal - Wanna Ride[1:49]<br>
68. Niklas Dee;Ren&amp;#233; Miller - Around The World[2:22]<br>
69. Corm!! - Get The Love[3:39]<br>
70. Ti&amp;#235;sto;Dimitri Vegas &amp; Like Mike;Gabry Ponte - Mockingbird[2:35]<br>
71. 3rd Wall &amp; Braaheim - Go Slow[0:31]<br>
72. MITCH DB;Wrex;Koen Fagen - We Found Love[2:20]<br>
73. David Guetta;Kim Petras - When We Were Young (The Logical Song)[2:28]<br>
74. Level 8;Grainne - Love My Ghost[2:04]<br>
75. twocolors;Safri Duo;Chris de Sarandy - Cynical[3:12]<br>
76. Avicii - The Nights[2:57]<br>
77. Avicii - Hey Brother[4:16]<br>
78. Axwell;Sebastian Ingrosso - More Than You Know[3:24]<br>
79. Level 8;Felix Samuel - I Could Never[2:19]<br>
80. David Guetta;OneRepublic - I Don't Wanna Wait[2:30]<br>
81. Belters Only - I Love You[2:33]<br>
82. Martin Garrix;Carolina Liar - Smile (feat. Carolina Liar)[3:14]<br>
83. Molella - Beautiful[2:43]<br>
84. Restricted - Big Jet Plane[2:31]<br>
85. Tigerlily;Felixx - Dancing In The Moonlight[2:12]<br>
86. Jaxomy;Agatino Romero;Raffaella Carr&amp;#224; - Pedro[2:25]<br>
87. Braaheim - Black Betty[2:20]<br>
88. Calvin Harris;Sam Smith - Desire[3:00]<br>
89. Braaheim;Felixx;Marco Nobel;BanKr - What You've Done[2:09]<br>
90. D.O.D - So Much In Love[2:59]<br>
91. Albi;Sinead Harnett - If You Let Me[2:38]<br>
92. Morgan Seatree;Florence + The Machine - Say My Name (Remix)[2:49]<br>
93. Level 8;Angelo Basham;Aimi - Love It, Hate It[2:05]<br>
94. CHRYSTAL;NOTION - The Days (NOTION Remix)[3:54]<br>
95. Level 8;Angelo Basham;Elyza - Spin Me Round[2:30]<br>
96. IN PARALLEL;Ely Oaks - NOW IT'S GONE (ELY OAKS REMIX)[1:55]<br>
97. Braaheim;ILYAA;MITCH DB;Felix Samuel - Clint Eastwood[1:57]<br>
98. Level 8;MITCH DB;Koen Fagen;Noxxia - Focus[2:12]<br>
99. Dillon Francis;Marten H&amp;#248;rger - B2U[2:49]<br>
100. Luude;Colin Hay - Down Under (feat. Colin Hay)[2:39]<br>
<br>




<div class="bbCodeBlock bbCodeVfcHH HiddenContent">
	<div class="attribution type">Hidden Content:</div>
	<blockquote>You must either reply or click 'Like' to see the hidden information contained here.</blockquote>
</div>
					<div class="messageTextEndMarker">&nbsp;</div>
				</blockquote>
			</article>]]></description>
                <author><![CDATA[Shpak]]></author>
                </item>

                
                <item>
                <title><![CDATA[【Unreleased/Unofficial (lossy)】360 RA - Bruno Mars - Locked Out of Heaven [mhm1, 16bit/48kHz, 640Kbps, 7.1.4 Immersive Audio LC@L3+WAV 7.1]]]></title>
                <link><![CDATA[https://sharemania.us/threads/bruno-mars-locked-out-of-heaven-mhm1-16bit-48khz-640kbps-7-1-4-immersive-audio-lc-l3-wav-7-1.283491/]]></link>
                <description><![CDATA[<article>
				<blockquote class="messageText SelectQuoteContainer ugc baseHtml">
					
					<img src="https://a5.mzstatic.com/us/r1000/0/Music115/v4/07/1d/b8/071db8b0-60f8-2c2f-563f-79f54d2ad01b/075679955319.jpg" class="bbCodeImage LbImage" alt="[​IMG]" data-url="https://a5.mzstatic.com/us/r1000/0/Music115/v4/07/1d/b8/071db8b0-60f8-2c2f-563f-79f54d2ad01b/075679955319.jpg" style=""><br>
<br>
<br>
<b>Artist: Bruno Mars<br>
Album: Locked Out of Heaven - Single<br>
Format: <b>Sony 360 Reality Audio</b><br>
.m4a [mhm1, 16bit/48kHz, 640Kbps, 7.1.4 Immersive Audio LC@L3]</b><br>
<br>
Tracklist:<br>
1            Locked Out of Heaven<br>
<b>Released 21 January 2013<br>
℗ 2012 Atlantic Recording Corporation for the United States and WEA International Inc. for the world outside of the United States</b><br>
<br>
<br>



<div class="ToggleTriggerAnchor bbCodeSpoilerContainer">
	<button type="button" class="button bbCodeSpoilerButton ToggleTrigger Tooltip JsOnly" data-target="&gt; .SpoilerTarget"><span>Spoiler: <span class="SpoilerTitle">MediaInfo</span></span></button>
	<div class="SpoilerTarget bbCodeSpoilerText">

<div class="bbCodeBlock bbCodeCode">
	<div class="type">Code:</div>
	<pre>General
Complete name               : 01 Locked Out of Heaven (360RA).mp4
Format                      : MPEG-4
Format profile              : Base Media / Version 2
Codec ID                    : mp42 (mp42)
File size                   : 18.3 MiB
Duration                    : 3 min 55 s
Overall bit rate            : 654 kb/s
Album                       : Locked Out of Heaven - Single
Album/Sorted by             : Locked Out of Heaven - Single
Album/Performer             : Bruno Mars
Part/Position               : 1
Part/Total                  : 1
Track name                  : Locked Out of Heaven
Track name/Position         : 1
Track name/Total            : 1
Performer                   : Bruno Mars
Performer/Sorted by         : Bruno Mars
Composer                    : Ari Levine, Bruno Mars &amp; Philip Lawrence
Composer/Sorted by          : Ari Levine, Bruno Mars &amp; Philip Lawrence
Genre                       : Pop
ContentType                 : Music
Recorded date               : 2013-01-21 08:00:00 UTC
Encoded date                : 2022-03-01 10:07:07 UTC
Tagged date                 : 2022-03-01 10:07:07 UTC
ISRC                        : USAT21204492
Copyright                   : ℗ 2012 Atlantic Recording Corporation for the United States and WEA International Inc. for the world outside of the United States
Cover                       : Yes
Lyrics                      : [00:00.10]One, two, one, two, three / [00:04.46]Oh, yeah, yeah / [00:06.11]Oh, yeah, yeah, yeah, yeah (Uh) / [00:11.11]Oh, yeah, yeah / [00:12.78]Oh, yeah, yeah, yeah, yeah (Uh) / [00:17.16]Never had much faith in love or miracles (Miracles) (Uh) / [00:23.75]Never wanna put my heart on the line (Uh) / [00:30.25]But swimming in your water's something spiritual (Spiritual) (Uh) / [00:36.95]I'm born again every time you spend the ni-i-ight, i, i-ight (Uh) / [00:42.78]'Cause your sex takes me to paradise / [00:46.12]Yeah, your sex takes me to paradise / [00:49.45]And it shows / [00:53.21]Yeah, yeah, yeah / [00:55.70]'Cause you make me feel like / [00:58.83]I've been locked out of heaven / [01:02.76]For too long / [01:06.13]For too long / [01:09.00]Yeah, you make me feel like / [01:12.17]I've been locked out of heaven / [01:16.14]For too long / [01:19.44]For too long / [01:26.13]Oh, yeah, yeah, yeah, yeah (Uh) / [01:31.08]Oh, yeah, yeah / [01:32.79]Oh, yeah, yeah, yeah, yeah (Uh) / [01:36.91]You bring me to my knees, you make me testify (Testify) (Uh) / [01:43.79]You can make a sinner change his ways (Uh) / [01:49.44]Open up your gates 'cause I can't wait to see the light (See the light) (Uh) / [01:56.90]And right there is where I wanna sta-a-ay, a-ay (Uh) / [02:02.76]'Cause your sex takes me to paradise / [02:06.12]Yeah, your sex takes me to paradise / [02:09.47]And it shows / [02:13.20]Yeah, yeah, yeah / [02:15.70]'Cause you make me feel like / [02:18.84]I've been locked out of heaven / [02:22.78]For too long / [02:26.11]For too long / [02:29.03]Yeah, you make me feel like / [02:32.14]I've been locked out of heaven / [02:36.13]For too long / [02:39.45]For too long / [02:43.42]Oh, whoa, whoa, whoa / [02:46.72]Yeah, yeah, yeah / [02:49.24]Can I just stay here? / [02:51.94]Spend the rest of my days here? / [02:56.75]Oh, whoa, whoa, whoa / [03:00.06]Yeah, yeah, yeah / [03:02.59]Can I just stay here? / [03:05.32]Spend the rest of my days here? / [03:08.95]'Cause you make me feel like / [03:12.18]I've been locked out of heaven / [03:16.09]For too long / [03:19.45]For too long / [03:22.24]Yeah, you make me feel like / [03:25.48]I've been locked out of heaven / [03:29.45]For too long / [03:32.76]For too long / [03:39.44]Oh, yeah, yeah, yeah, yeah (Uh) / [03:44.46]Oh, yeah, yeah / [03:46.13]Oh, yeah, yeah, yeah, yeah (Uh)
Comment                     : atmos &amp; 360ra mix by andammm777 on sharemania.us
Rating                      : Explicit
Title/Sort                  : Locked Out of Heaven
WWW                         : https://sharemania.us/
ENCODEDBY                   : andammm777

Audio
ID                          : 1
Format                      : MPEG-H 3D Audio
Format profile              : LC@L3, BL@L3
Codec ID                    : mhm1
Duration                    : 3 min 55 s
Duration_LastFrame          : -8 ms
Bit rate                    : 640 kb/s
Channel(s)                  : 12 channels (7.1.4)
Channel layout              : L R C LFE Lb Rb Lss Rss Tfl Tfr Tbl Tbr
Sampling rate               : 48.0 kHz
Frame rate                  : 46.875 FPS (1024 SPF)
Stream size                 : 17.9 MiB (98%)
Encoded date                : 2022-03-01 10:07:07 UTC
Tagged date                 : 2022-03-01 10:07:07 UTC
DRC effect type(s)          : General (1-0) / General (2-0) / General (3-0) / Night &amp; Noisy &amp; Limited &amp; Dialog (4-0)
Sample peak level           : -2.563 dBFS
Program loudness            : -18.00 LKFS
Signal group #1             : 10 objects
 Type                       : Object
 Number of objects          : 10 objects
Codec configuration box     : mhaC


</pre>
</div></div>
</div><br>
<br>
PASSWORD ZIP: sharemania<br>
link<br>




<div class="bbCodeBlock bbCodeVfcHH HiddenContent">
	<div class="attribution type">Hidden Content:</div>
	<blockquote>You must reply before you can see the hidden data contained here.</blockquote>
</div>
					<div class="messageTextEndMarker">&nbsp;</div>
				</blockquote>
			</article>]]></description>
                <author><![CDATA[andammm777]]></author>
                </item>

                
                <item>
                <title><![CDATA[【Requests】[REQ VID] - Seventeen - Thunder (Live on The Kelly Clarkson Show)]]></title>
                <link><![CDATA[https://sharemania.us/threads/seventeen-thunder-live-on-the-kelly-clarkson-show.283492/]]></link>
                <description><![CDATA[<article>
				<blockquote class="messageText SelectQuoteContainer ugc baseHtml">
					
					Hello, guys. Can someone share this performance? The original upload is private on YouTube now. Hope you have it in a good quality.
					<div class="messageTextEndMarker">&nbsp;</div>
				</blockquote>
			</article>]]></description>
                <author><![CDATA[Sam Jones]]></author>
                </item>

                </channel></rss>